HIERARCHY
ROOT Hips
{
	OFFSET 0.000000 0.000000 0.000000
	CHANNELS 6 Xposition Yposition Zposition Zrotation Yrotation Xrotation 
	JOINT LeftUpLeg_virtual
	{
		OFFSET 0.000000 0.000000 0.000000
		CHANNELS 3 Zrotation Yrotation Xrotation
		JOINT LeftUpLeg
		{
			OFFSET 8.479694 -4.795517 -0.379053
			CHANNELS 3 Zrotation Yrotation Xrotation
			JOINT LeftLeg
			{
				OFFSET 0.485052 -32.551468 0.112863
				CHANNELS 3 Zrotation Yrotation Xrotation
				JOINT LeftFoot
				{
					OFFSET 0.438033 -32.635670 -3.012641
					CHANNELS 3 Zrotation Yrotation Xrotation
					JOINT LeftToeBase
					{
						OFFSET 0.970169 -13.225353 11.864223
						CHANNELS 3 Zrotation Yrotation Xrotation
						End Site
						{
							OFFSET 0.000000 0.000000 0.000000
						}
					}
				}
			}
		}
	}
	JOINT RightUpLeg_virtual
	{
		OFFSET 0.000000 0.000000 0.000000
		CHANNELS 3 Zrotation Yrotation Xrotation
		JOINT RightUpLeg
		{
			OFFSET -8.479694 -4.795517 -0.379053
			CHANNELS 3 Zrotation Yrotation Xrotation
			JOINT RightLeg
			{
				OFFSET -0.484100 -32.551483 0.112903
				CHANNELS 3 Zrotation Yrotation Xrotation
				JOINT RightFoot
				{
					OFFSET -0.438985 -32.635651 -3.012681
					CHANNELS 3 Zrotation Yrotation Xrotation
					JOINT RightToeBase
					{
						OFFSET -0.970169 -13.225354 11.864223
						CHANNELS 3 Zrotation Yrotation Xrotation
						End Site
						{
							OFFSET 0.000000 0.000000 0.000000
						}
					}
				}
			}
		}
	}
	JOINT Spine_virtual
	{
		OFFSET 0.000000 0.000000 0.000000
		CHANNELS 3 Zrotation Yrotation Xrotation
		JOINT Spine
		{
			OFFSET 0.000000 7.722015 1.166203
			CHANNELS 3 Zrotation Yrotation Xrotation
			JOINT Spine1
			{
				OFFSET 0.000000 12.024086 0.248766
				CHANNELS 3 Zrotation Yrotation Xrotation
				JOINT Spine2
				{
					OFFSET -0.000000 11.503036 -0.491240
					CHANNELS 3 Zrotation Yrotation Xrotation
					JOINT Neck_virtual
					{
						OFFSET 0.000000 0.000000 0.000000
						CHANNELS 3 Zrotation Yrotation Xrotation
						JOINT Neck
						{
							OFFSET 0.000000 18.430687 -3.123054
							CHANNELS 3 Zrotation Yrotation Xrotation
							JOINT Head
							{
								OFFSET -0.000000 9.051071 1.034021
								CHANNELS 3 Zrotation Yrotation Xrotation
								End Site
								{
									OFFSET 0.000000 0.000000 0.000000
								}
							}
						}
					}
					JOINT LeftShoulder_virtual
					{
						OFFSET 0.000000 0.000000 0.000000
						CHANNELS 3 Zrotation Yrotation Xrotation
						JOINT LeftShoulder
						{
							OFFSET 6.197824 13.665230 -4.064723
							CHANNELS 3 Zrotation Yrotation Xrotation
							JOINT LeftArm
							{
								OFFSET 7.778132 -0.187073 -1.709282
								CHANNELS 3 Zrotation Yrotation Xrotation
								JOINT LeftForeArm
								{
									OFFSET 21.954697 0.000000 -2.041093
									CHANNELS 3 Zrotation Yrotation Xrotation
									JOINT LeftHand
									{
										OFFSET 22.992908 0.000000 -0.870901
										CHANNELS 3 Zrotation Yrotation Xrotation
										End Site
										{
											OFFSET 0.000000 0.000000 0.000000
										}
									}
								}
							}
						}
					}
					JOINT RightShoulder_virtual
					{
						OFFSET 0.000000 0.000000 0.000000
						CHANNELS 3 Zrotation Yrotation Xrotation
						JOINT RightShoulder
						{
							OFFSET -6.197824 13.665230 -4.064723
							CHANNELS 3 Zrotation Yrotation Xrotation
							JOINT RightArm
							{
								OFFSET -7.778132 -0.187073 -1.709282
								CHANNELS 3 Zrotation Yrotation Xrotation
								JOINT RightForeArm
								{
									OFFSET -21.954697 0.000000 -2.041093
									CHANNELS 3 Zrotation Yrotation Xrotation
									JOINT RightHand
									{
										OFFSET -22.992908 0.000000 -0.870901
										CHANNELS 3 Zrotation Yrotation Xrotation
										End Site
										{
											OFFSET 0.000000 0.000000 0.000000
										}
									}
								}
							}
						}
					}
				}
			}
		}
	}
}
MOTION
Frames: 9
Frame Time: 0.033333
-1.126757 81.602203 -12.236677 179.966537 0.596241 179.975184 -3.891560 -0.372615 10.671890 -0.051889 0.694319 -23.448629 7.420084 2.530838 27.170648 -3.212436 -10.046703 -10.594055 0.000000 0.000000 0.000000 -0.547179 -1.524580 10.520093 -4.766475 2.436074 -21.455555 -1.250166 4.424985 29.475050 11.205221 5.254724 -9.858807 0.000000 0.000000 0.000000 2.344986 1.602311 -1.689511 -6.697710 1.880257 1.095115 0.181754 -2.270705 3.445853 0.028688 0.005282 -0.060968 -0.264845 -1.207460 3.927002 -0.220789 -1.790594 -12.087498 0.000000 0.000000 0.000000 1.156106 -0.454386 1.437310 13.702276 1.876682 -3.522410 -18.021300 8.640579 -44.668795 3.419681 -32.691604 -7.845035 0.000000 0.000000 0.000000 -2.561191 0.714654 0.782346 3.731238 -12.832725 -2.389892 16.233828 -10.194465 -50.566366 -0.728466 27.074325 -3.436905 0.000000 0.000000 0.000000 
-1.118710 81.612648 -12.208931 179.856954 0.507285 179.967671 -3.863351 -0.383089 10.640404 -0.005874 0.393854 -23.517687 7.420009 2.296544 26.935676 -3.283709 -10.114418 -11.138549 0.000000 0.000000 0.000000 -0.566246 -1.661908 10.497967 -4.713336 2.044342 -21.521257 -1.256043 4.224400 29.586870 11.206277 5.249636 -9.833583 0.000000 0.000000 0.000000 2.306272 1.571437 -1.659263 -6.746222 1.867208 1.120916 0.143328 -2.310694 3.506449 0.000173 -0.016174 -0.025097 -0.208947 -1.130019 3.862395 -0.222021 -1.879250 -12.078387 0.000000 0.000000 0.000000 1.217078 -0.355841 1.346795 13.695310 1.916877 -3.493245 -18.024309 8.543500 -44.699128 3.470504 -32.650500 -7.935923 0.000000 0.000000 0.000000 -2.464625 0.708411 0.711732 3.768768 -12.834765 -2.386754 16.198523 -10.143575 -50.604807 -0.704205 27.041200 -3.378541 0.000000 0.000000 0.000000 
-1.112576 81.612991 -12.177156 179.872895 0.411558 179.972438 -3.846449 -0.426077 10.639273 -0.029933 0.354091 -23.533374 7.450342 2.286242 26.942646 -3.329143 -10.133129 -11.118926 0.000000 0.000000 0.000000 -0.568305 -1.747960 10.491877 -4.693685 1.989192 -21.538283 -1.260818 4.233797 29.543140 11.200816 5.227153 -9.854258 0.000000 0.000000 0.000000 2.345036 1.528027 -1.654163 -6.746196 1.850441 1.096411 0.131682 -2.331846 3.525072 -0.013787 -0.041724 -0.023935 -0.180005 -1.096329 3.835446 -0.215274 -1.779512 -12.066108 0.000000 0.000000 0.000000 1.231142 -0.329267 1.393773 13.593625 1.930100 -3.486754 -17.912021 8.355312 -44.689781 3.471096 -32.707481 -7.954992 0.000000 0.000000 0.000000 -2.462297 0.699927 0.713635 3.743654 -12.797688 -2.350818 16.209007 -10.107700 -50.577353 -0.708894 27.023169 -3.389155 0.000000 0.000000 0.000000 
-1.109106 81.616394 -12.153808 179.945514 0.479875 179.950035 -3.787782 -0.395390 10.657013 0.006966 0.310401 -23.535903 7.474206 2.359719 26.936227 -3.324742 -10.139893 -11.157432 0.000000 0.000000 0.000000 -0.530199 -1.720159 10.496818 -4.679359 2.036274 -21.523859 -1.224063 4.240916 29.522263 11.179782 5.181530 -9.805075 0.000000 0.000000 0.000000 2.420107 1.510683 -1.631523 -6.723490 1.881806 1.060647 0.161089 -2.306770 3.501895 0.026975 -0.012827 -0.010892 -0.256603 -1.167582 3.830444 -0.214402 -1.744350 -12.004906 0.000000 0.000000 0.000000 1.151210 -0.404966 1.316853 13.690987 1.933148 -3.591140 -18.050522 8.411461 -44.719598 3.380239 -32.797407 -7.923350 0.000000 0.000000 0.000000 -2.554774 0.709696 0.673356 3.741000 -12.789635 -2.364738 16.364377 -10.157019 -50.534073 -0.760040 27.001886 -3.464709 0.000000 0.000000 0.000000 
-1.108844 81.617325 -12.147644 179.945760 0.391188 179.983175 -3.763874 -0.470274 10.643430 -0.003478 0.239848 -23.563908 7.499376 2.368212 26.927252 -3.321823 -10.136315 -11.185798 0.000000 0.000000 0.000000 -0.533018 -1.778961 10.488573 -4.678297 1.972591 -21.555307 -1.212422 4.224208 29.524869 11.182077 5.170666 -9.793372 0.000000 0.000000 0.000000 2.455175 1.448322 -1.661640 -6.726381 1.859543 0.988395 0.160137 -2.323383 3.489357 0.031295 -0.025700 -0.052322 -0.287529 -1.220743 3.886548 -0.211231 -1.847831 -11.987819 0.000000 0.000000 0.000000 1.113345 -0.360017 1.445726 13.709495 2.049460 -3.604640 -18.076635 8.230544 -44.731650 3.319088 -32.878721 -7.928880 0.000000 0.000000 0.000000 -2.566142 0.727942 0.806121 3.694227 -12.783916 -2.600955 16.430927 -10.094763 -50.664670 -0.565417 26.972212 -3.265613 0.000000 0.000000 0.000000 
-1.107793 81.618515 -12.155953 179.949216 0.350349 179.985183 -3.745981 -0.504403 10.639704 -0.003372 0.201026 -23.568143 7.491778 2.383618 26.933929 -3.311102 -10.134315 -11.211869 0.000000 0.000000 0.000000 -0.501364 -1.810562 10.484039 -4.689794 1.879954 -21.580850 -1.210829 4.254363 29.578821 11.198522 5.180151 -9.795750 0.000000 0.000000 0.000000 2.490917 1.412751 -1.687751 -6.733957 1.852769 0.927835 0.154295 -2.329188 3.501177 0.030002 -0.021000 -0.060372 -0.293369 -1.207947 3.913983 -0.221298 -1.846539 -11.897037 0.000000 0.000000 0.000000 1.112410 -0.350494 1.456010 13.707063 2.142623 -3.603575 -18.154977 8.184961 -44.670550 3.287894 -32.987355 -7.978274 0.000000 0.000000 0.000000 -2.585945 0.770662 0.793623 3.728190 -12.691410 -2.388998 16.551942 -10.049872 -50.567729 -0.760799 26.975894 -3.452795 0.000000 0.000000 0.000000 
-1.106786 81.618362 -12.169789 179.943902 0.320120 179.957753 -3.734292 -0.523056 10.647786 -0.033910 0.196696 -23.543978 7.457527 2.392572 26.969936 -3.306487 -10.131263 -11.227028 0.000000 0.000000 0.000000 -0.453352 -1.812839 10.479895 -4.726601 1.782671 -21.592827 -1.220066 4.311384 29.697639 11.217105 5.189603 -9.793495 0.000000 0.000000 0.000000 2.539507 1.407915 -1.722247 -6.733052 1.872099 0.868414 0.153008 -2.312432 3.528896 0.023121 -0.003965 -0.024405 -0.264400 -1.176636 3.876091 -0.225990 -1.782661 -11.767491 0.000000 0.000000 0.000000 1.147706 -0.426042 1.345425 13.690377 2.163651 -3.598379 -18.260861 8.280291 -44.537577 3.282767 -33.107412 -8.084501 0.000000 0.000000 0.000000 -2.569192 0.700264 0.720512 3.707024 -12.676024 -2.354537 16.634116 -10.012119 -50.505953 -0.840610 26.982309 -3.535603 0.000000 0.000000 0.000000 
-1.110825 81.616936 -12.184998 179.876283 0.176725 179.981495 -3.741945 -0.604578 10.619208 -0.070800 0.152028 -23.556639 7.419817 2.361550 26.996507 -3.307315 -10.125029 -11.246621 0.000000 0.000000 0.000000 -0.435192 -1.860574 10.456997 -4.756031 1.598693 -21.642132 -1.232972 4.342540 29.830165 11.241078 5.215371 -9.822498 0.000000 0.000000 0.000000 2.547416 1.380611 -1.761725 -6.754369 1.847809 0.778951 0.128344 -2.320754 3.527117 -0.009407 -0.007372 -0.046218 -0.214396 -1.158662 3.922610 -0.213735 -1.888943 -11.672460 0.000000 0.000000 0.000000 1.186855 -0.408160 1.483163 13.698557 2.223826 -3.547482 -18.280544 8.143987 -44.535569 3.286905 -33.146406 -8.216002 0.000000 0.000000 0.000000 -2.517831 0.674692 0.764211 3.704445 -12.641154 -2.463606 16.646902 -9.952410 -50.489141 -0.800594 27.009874 -3.456049 0.000000 0.000000 0.000000 
-1.118490 81.613396 -12.196110 179.867732 0.207307 179.967958 -3.712131 -0.580543 10.608793 -0.082694 0.158481 -23.561644 7.371255 2.418200 27.059005 -3.303545 -10.132906 -11.284897 0.000000 0.000000 0.000000 -0.386951 -1.810303 10.442101 -4.797552 1.535916 -21.668029 -1.219240 4.398396 30.010769 11.244177 5.211518 -9.814093 0.000000 0.000000 0.000000 2.577008 1.365760 -1.761568 -6.750397 1.835878 0.724632 0.135379 -2.311356 3.562702 -0.008596 0.010955 -0.037197 -0.203800 -1.158968 3.943179 -0.233627 -1.853236 -11.533466 0.000000 0.000000 0.000000 1.212419 -0.422570 1.435452 13.707667 2.374660 -3.560539 -18.334193 8.190928 -44.429042 3.178359 -33.156016 -8.217823 0.000000 0.000000 0.000000 -2.516113 0.739814 0.716334 3.708795 -12.506584 -2.402063 16.743374 -9.947719 -50.484739 -0.905542 27.106709 -3.558403 0.000000 0.000000 0.000000 
